<svg xmlns="http://www.w3.org/2000/svg" viewBox="0 0 640 850" width="640" height="850">
  <g fill="rgba(255,255,255,0.15)" stroke="rgba(255,255,255,0.76)" stroke-linejoin="round" stroke-linecap="round">
    <path d="M 105 275 C 116 245 149 230 184 238 C 218 248 236 277 232 317 C 228 359 202 389 166 392 C 132 392 105 365 95 327 C 89 304 94 286 105 275 Z" stroke-width="4"/>
    <path d="M 205 358 C 228 364 270 365 320 367 C 350 368 372 371 389 379 C 427 399 462 451 500 518 C 535 580 566 652 594 735 C 613 790 626 830 631 848 C 550 848 465 847 376 846 C 316 845 265 847 219 848 C 220 824 216 799 207 770 C 191 722 179 680 176 638 C 172 590 180 547 191 506 C 203 463 209 420 205 358 Z" stroke-width="4"/>
    <path d="M 504 735 C 520 733 531 746 542 762 C 554 778 566 794 575 811 C 575 823 566 829 553 825 C 539 819 527 804 517 787 C 506 768 496 747 504 735 Z" stroke-width="3"/>
    <path d="M 231 777 C 249 771 267 790 275 814 C 281 836 269 850 248 848 C 230 842 216 823 216 803 C 216 789 221 780 231 777 Z" stroke-width="3"/>
  </g>
  <g fill="none" stroke="rgba(255,255,255,0.55)" stroke-width="2.2" stroke-linecap="round">
    <path d="M 184 380 C 195 384 205 380 214 366 M 211 356 C 228 381 249 403 277 424"/>
    <path d="M 199 438 C 221 410 247 399 277 424 C 245 440 221 460 200 486"/>
    <path d="M 235 362 C 282 366 342 368 389 379"/>
    <path d="M 437 505 C 475 558 506 632 532 704 C 543 735 552 765 560 792"/>
    <path d="M 207 592 C 220 642 231 708 238 778"/>
    <path d="M 529 759 C 538 775 548 792 557 811"/>
    <path d="M 517 767 C 527 787 538 805 549 820"/>
    <path d="M 238 795 C 248 812 254 830 257 846"/>
  </g>
</svg>
